SplineFontDB: 3.2
FontName: IvaninaBacic
FullName: IvaninaBacic
FamilyName: IvaninaBacic
Weight: Book
Copyright: Copyright (c) 2024, Ivanina
Version: 001.000
ItalicAngle: 0
UnderlinePosition: -100
UnderlineWidth: 50
Ascent: 800
Descent: 200
InvalidEm: 0
sfntRevision: 0x00010000
LayerCount: 2
Layer: 0 1 "Stra+AX4A-nji" 1
Layer: 1 1 "Prednji" 0
XUID: [1021 280 -1287061713 31379]
StyleMap: 0x0000
FSType: 0
OS2Version: 4
OS2_WeightWidthSlopeOnly: 0
OS2_UseTypoMetrics: 1
CreationTime: 1710495349
ModificationTime: 1710592213
PfmFamily: 17
TTFWeight: 400
TTFWidth: 5
LineGap: 90
VLineGap: 0
Panose: 2 0 5 3 0 0 0 0 0 0
OS2TypoAscent: 800
OS2TypoAOffset: 0
OS2TypoDescent: -200
OS2TypoDOffset: 0
OS2TypoLinegap: 90
OS2WinAscent: 871
OS2WinAOffset: 0
OS2WinDescent: 39
OS2WinDOffset: 0
HheadAscent: 871
HheadAOffset: 0
HheadDescent: -39
HheadDOffset: 0
OS2SubXSize: 650
OS2SubYSize: 700
OS2SubXOff: 0
OS2SubYOff: 140
OS2SupXSize: 650
OS2SupYSize: 700
OS2SupXOff: 0
OS2SupYOff: 480
OS2StrikeYSize: 49
OS2StrikeYPos: 258
OS2CapHeight: 730
OS2XHeight: 474
OS2Vendor: 'PfEd'
OS2CodePages: 00000001.00000000
OS2UnicodeRanges: 00000005.00000000.00000000.00000000
MarkAttachClasses: 1
DEI: 91125
ShortTable: cvt  2
  33
  633
EndShort
ShortTable: maxp 16
  1
  0
  24
  467
  3
  0
  0
  2
  0
  1
  1
  0
  64
  46
  0
  0
EndShort
LangName: 1033 "" "" "Regular" "FontForge 2.0 : IvaninaBacic : 16-3-2024" "" "Version 001.000"
GaspTable: 1 65535 2 0
Encoding: UnicodeBmp
UnicodeInterp: none
NameList: AGL For New Fonts
DisplaySize: -48
AntiAlias: 1
FitToEm: 0
WinInfo: 38 38 12
BeginChars: 65539 24

StartChar: .notdef
Encoding: 65536 -1 0
Width: 364
GlyphClass: 1
Flags: W
LayerCount: 2
Fore
SplineSet
33 0 m 1,0,-1
 33 666 l 1,1,-1
 298 666 l 1,2,-1
 298 0 l 1,3,-1
 33 0 l 1,0,-1
66 33 m 1,4,-1
 265 33 l 1,5,-1
 265 633 l 1,6,-1
 66 633 l 1,7,-1
 66 33 l 1,4,-1
EndSplineSet
Validated: 1
EndChar

StartChar: A
Encoding: 65 65 4
Width: 480
GlyphClass: 1
Flags: W
LayerCount: 2
Fore
SplineSet
205 607 m 0,0,1
 284 616 284 616 286 551 c 0,2,3
 288 481 288 481 233 472 c 0,4,5
 210 468 210 468 180.5 486.5 c 128,-1,6
 151 505 151 505 152 538 c 0,7,8
 153 567 153 567 168.5 586 c 128,-1,9
 184 605 184 605 205 607 c 0,0,1
30 67 m 0,10,11
 29 64 29 64 28.5 59.5 c 128,-1,12
 28 55 28 55 29 43.5 c 128,-1,13
 30 32 30 32 34 23 c 128,-1,14
 38 14 38 14 51 7 c 128,-1,15
 64 0 64 0 84 0 c 0,16,17
 123 0 123 0 133 12 c 128,-1,18
 143 24 143 24 149 64 c 0,19,20
 153 96 153 96 150.5 145 c 128,-1,21
 148 194 148 194 152 257 c 128,-1,22
 156 320 156 320 170 347 c 0,23,24
 185 375 185 375 207.5 383 c 128,-1,25
 230 391 230 391 247.5 380 c 128,-1,26
 265 369 265 369 268 348 c 0,27,28
 274 300 274 300 278.5 225.5 c 128,-1,29
 283 151 283 151 286.5 102.5 c 128,-1,30
 290 54 290 54 293 47 c 2,31,32
 293 47 293 47 298.5 34 c 128,-1,33
 304 21 304 21 307.5 16.5 c 128,-1,34
 311 12 311 12 323 6 c 128,-1,35
 335 0 335 0 352 0 c 0,36,37
 391 0 391 0 404.5 14.5 c 128,-1,38
 418 29 418 29 419 57 c 0,39,40
 436 588 436 588 421 644 c 0,41,42
 414 672 414 672 379 695 c 128,-1,43
 344 718 344 718 297 727 c 128,-1,44
 250 736 250 736 202.5 734 c 128,-1,45
 155 732 155 732 116 709.5 c 128,-1,46
 77 687 77 687 64 647 c 0,47,48
 34 553 34 553 28.5 379 c 128,-1,49
 23 205 23 205 30 67 c 0,10,11
EndSplineSet
Validated: 41
EndChar

StartChar: B
Encoding: 66 66 5
Width: 546
GlyphClass: 1
Flags: W
LayerCount: 2
Fore
SplineSet
187 213 m 0,0,1
 183 189 183 189 194.5 165.5 c 128,-1,2
 206 142 206 142 225 134 c 0,3,4
 246 124 246 124 279.5 133 c 128,-1,5
 313 142 313 142 323 161 c 0,6,7
 333 184 333 184 331.5 204.5 c 128,-1,8
 330 225 330 225 319 238 c 0,9,10
 287 273 287 273 240.5 260.5 c 128,-1,11
 194 248 194 248 187 213 c 0,0,1
172 561 m 0,12,13
 171 497 171 497 218 492 c 0,14,15
 297 483 297 483 303 525 c 0,16,17
 315 602 315 602 273 618 c 0,18,19
 235 633 235 633 204 616.5 c 128,-1,20
 173 600 173 600 172 561 c 0,12,13
60 15 m 0,21,22
 44 41 44 41 36 203.5 c 128,-1,23
 28 366 28 366 35.5 527.5 c 128,-1,24
 43 689 43 689 66 708 c 128,-1,25
 89 727 89 727 154 730.5 c 128,-1,26
 219 734 219 734 289.5 722.5 c 128,-1,27
 360 711 360 711 419.5 674 c 128,-1,28
 479 637 479 637 488 582 c 0,29,30
 497 530 497 530 483 487.5 c 128,-1,31
 469 445 469 445 442 420.5 c 128,-1,32
 415 396 415 396 387.5 383 c 128,-1,33
 360 370 360 370 338 369 c 0,34,35
 335 369 335 369 339 368 c 2,36,37
 339 368 339 368 342 367 c 0,38,39
 472 337 472 337 496 230 c 0,40,41
 500 209 500 209 500 186 c 0,42,43
 500 120 500 120 435 74 c 128,-1,44
 370 28 370 28 289.5 12.5 c 128,-1,45
 209 -3 209 -3 139.5 -2 c 128,-1,46
 70 -1 70 -1 60 15 c 0,21,22
EndSplineSet
Validated: 33
EndChar

StartChar: I
Encoding: 73 73 6
Width: 222
GlyphClass: 1
Flags: W
LayerCount: 2
Fore
SplineSet
80 32 m 0,0,1
 62 72 62 72 63 360.5 c 128,-1,2
 64 649 64 649 88 700 c 0,3,4
 96 717 96 717 107 724.5 c 128,-1,5
 118 732 118 732 128.5 731 c 128,-1,6
 139 730 139 730 148.5 725 c 128,-1,7
 158 720 158 720 163.5 713.5 c 128,-1,8
 169 707 169 707 170 702 c 0,9,10
 193 517 193 517 188 320.5 c 128,-1,11
 183 124 183 124 164 46 c 0,12,13
 157 19 157 19 140.5 7.5 c 128,-1,14
 124 -4 124 -4 106.5 3 c 128,-1,15
 89 10 89 10 80 32 c 0,0,1
EndSplineSet
Validated: 33
EndChar

StartChar: N
Encoding: 78 78 7
Width: 594
GlyphClass: 1
Flags: W
LayerCount: 2
Fore
SplineSet
46 15 m 1,0,1
 45 28 45 28 44 51 c 128,-1,2
 43 74 43 74 40.5 140 c 128,-1,3
 38 206 38 206 36 267.5 c 128,-1,4
 34 329 34 329 32.5 405.5 c 128,-1,5
 31 482 31 482 30.5 539.5 c 128,-1,6
 30 597 30 597 32 641.5 c 128,-1,7
 34 686 34 686 38 697 c 0,8,9
 55 730 55 730 91 730 c 128,-1,10
 127 730 127 730 149 706 c 0,11,12
 159 696 159 696 202.5 608 c 128,-1,13
 246 520 246 520 293 422 c 128,-1,14
 340 324 340 324 382 243.5 c 128,-1,15
 424 163 424 163 431 163 c 0,16,17
 441 163 441 163 443 287 c 128,-1,18
 445 411 445 411 451 544 c 128,-1,19
 457 677 457 677 475 693 c 0,20,21
 505 720 505 720 514 722 c 0,22,23
 527 724 527 724 556 702 c 0,24,25
 566 695 566 695 568.5 623.5 c 128,-1,26
 571 552 571 552 567 455 c 128,-1,27
 563 358 563 358 558 262.5 c 128,-1,28
 553 167 553 167 548 100 c 2,29,-1
 543 34 l 1,30,31
 517 6 517 6 448 5.5 c 128,-1,32
 379 5 379 5 363 34 c 0,33,34
 354 51 354 51 298.5 156 c 128,-1,35
 243 261 243 261 193.5 354.5 c 128,-1,36
 144 448 144 448 143 448 c 128,-1,37
 142 448 142 448 149 335 c 128,-1,38
 156 222 156 222 158.5 124 c 128,-1,39
 161 26 161 26 147 6 c 1,40,41
 88 -10 88 -10 46 15 c 1,0,1
EndSplineSet
Validated: 33
EndChar

StartChar: V
Encoding: 86 86 8
Width: 521
GlyphClass: 1
Flags: W
LayerCount: 2
Fore
SplineSet
5 642 m 0,0,1
 9 681 9 681 31 696.5 c 128,-1,2
 53 712 53 712 77 703.5 c 128,-1,3
 101 695 101 695 113 672 c 0,4,5
 121 658 121 658 138.5 547 c 128,-1,6
 156 436 156 436 180.5 326.5 c 128,-1,7
 205 217 205 217 233 195 c 0,8,9
 259 174 259 174 292 253 c 0,10,11
 313 304 313 304 369 510 c 0,12,13
 404 639 404 639 422 669 c 0,14,15
 445 707 445 707 473.5 718.5 c 128,-1,16
 502 730 502 730 520.5 712 c 128,-1,17
 539 694 539 694 536 654 c 0,18,19
 533 620 533 620 505.5 515 c 128,-1,20
 478 410 478 410 437.5 290 c 128,-1,21
 397 170 397 170 343.5 81 c 128,-1,22
 290 -8 290 -8 245 0 c 0,23,24
 190 10 190 10 129 149 c 128,-1,25
 68 288 68 288 33.5 437 c 128,-1,26
 -1 586 -1 586 5 642 c 0,0,1
EndSplineSet
Validated: 33
EndChar

StartChar: a
Encoding: 97 97 9
Width: 583
GlyphClass: 1
Flags: W
LayerCount: 2
Fore
SplineSet
185 211 m 0,0,1
 181 234 181 234 186 260 c 128,-1,2
 191 286 191 286 213 306.5 c 128,-1,3
 235 327 235 327 272 324 c 0,4,5
 319 320 319 320 332.5 298 c 128,-1,6
 346 276 346 276 349 218 c 0,7,8
 353 148 353 148 295 136 c 0,9,10
 289 132 289 132 272.5 134 c 128,-1,11
 256 136 256 136 239 140.5 c 128,-1,12
 222 145 222 145 206.5 163.5 c 128,-1,13
 191 182 191 182 185 211 c 0,0,1
437 359 m 1,14,15
 396 458 396 458 293 460 c 0,16,17
 204 461 204 461 123 394 c 0,18,19
 37 324 37 324 31 234 c 0,20,21
 27 179 27 179 59 129 c 0,22,23
 97 69 97 69 148 36.5 c 128,-1,24
 199 4 199 4 243.5 -0.5 c 128,-1,25
 288 -5 288 -5 327.5 0.5 c 128,-1,26
 367 6 367 6 390 14 c 2,27,-1
 413 23 l 1,28,-1
 447 47 l 1,29,-1
 448 0 l 1,30,-1
 554 0 l 1,31,-1
 536 452 l 1,32,-1
 439 448 l 2,33,34
 438 447 438 447 437 359 c 1,14,15
EndSplineSet
Validated: 41
EndChar

StartChar: b
Encoding: 98 98 10
Width: 478
GlyphClass: 1
Flags: W
LayerCount: 2
Fore
SplineSet
179 150 m 1,0,1
 179 150 179 150 192 148.5 c 128,-1,2
 205 147 205 147 224.5 147 c 128,-1,3
 244 147 244 147 264.5 151 c 128,-1,4
 285 155 285 155 303.5 168.5 c 128,-1,5
 322 182 322 182 329 205 c 0,6,7
 343 249 343 249 316.5 272.5 c 128,-1,8
 290 296 290 296 249 304 c 0,9,10
 213 311 213 311 183 293.5 c 128,-1,11
 153 276 153 276 155 227 c 0,12,13
 156 199 156 199 162 179.5 c 128,-1,14
 168 160 168 160 174 155 c 2,15,-1
 179 150 l 1,0,1
27 0 m 1,16,-1
 18 699 l 1,17,18
 135 700 135 700 138 700 c 0,19,20
 139 690 139 690 139 630.5 c 128,-1,21
 139 571 139 571 138 502 c 2,22,-1
 137 433 l 1,23,24
 143 433 143 433 154 433.5 c 128,-1,25
 165 434 165 434 196.5 432.5 c 128,-1,26
 228 431 228 431 257 426 c 128,-1,27
 286 421 286 421 322.5 407.5 c 128,-1,28
 359 394 359 394 387 374.5 c 128,-1,29
 415 355 415 355 437 321 c 128,-1,30
 459 287 459 287 465 243 c 0,31,32
 475 175 475 175 456 125 c 128,-1,33
 437 75 437 75 399 49 c 128,-1,34
 361 23 361 23 313 7.5 c 128,-1,35
 265 -8 265 -8 214.5 -9.5 c 128,-1,36
 164 -11 164 -11 122 -9.5 c 128,-1,37
 80 -8 80 -8 54 -4 c 2,38,-1
 27 0 l 1,16,-1
EndSplineSet
Validated: 33
EndChar

StartChar: i
Encoding: 105 105 11
Width: 262
GlyphClass: 1
Flags: W
LayerCount: 2
Fore
SplineSet
113 542 m 0,0,1
 89 544 89 544 71.5 552.5 c 128,-1,2
 54 561 54 561 46.5 579.5 c 128,-1,3
 39 598 39 598 59 626 c 0,4,5
 70 642 70 642 83 649 c 128,-1,6
 96 656 96 656 109 653.5 c 128,-1,7
 122 651 122 651 131 647 c 128,-1,8
 140 643 140 643 150 636 c 128,-1,9
 160 629 160 629 161 629 c 0,10,11
 165 623 165 623 163 603 c 128,-1,12
 161 583 161 583 146.5 562 c 128,-1,13
 132 541 132 541 113 542 c 0,0,1
215 24 m 0,14,15
 202 4 202 4 165 1.5 c 128,-1,16
 128 -1 128 -1 95 24 c 0,17,18
 67 48 67 48 59.5 200 c 128,-1,19
 52 352 52 352 59 440 c 0,20,21
 63 489 63 489 128 481 c 0,22,23
 172 476 172 476 191 459 c 0,24,25
 196 455 196 455 194 452 c 0,26,27
 190 446 190 446 206.5 241.5 c 128,-1,28
 223 37 223 37 215 24 c 0,14,15
EndSplineSet
Validated: 33
EndChar

StartChar: n
Encoding: 110 110 12
Width: 421
GlyphClass: 1
Flags: W
LayerCount: 2
Fore
SplineSet
35 466 m 0,0,1
 114 491 114 491 128 481 c 0,2,3
 134 477 134 477 137.5 467 c 128,-1,4
 141 457 141 457 142 449 c 2,5,-1
 143 441 l 1,6,7
 143 441 143 441 149.5 443.5 c 128,-1,8
 156 446 156 446 166.5 449.5 c 128,-1,9
 177 453 177 453 191 457 c 128,-1,10
 205 461 205 461 221.5 464 c 128,-1,11
 238 467 238 467 255.5 468 c 128,-1,12
 273 469 273 469 291 466.5 c 128,-1,13
 309 464 309 464 325 458 c 128,-1,14
 341 452 341 452 356.5 439.5 c 128,-1,15
 372 427 372 427 383 409 c 0,16,17
 396 388 396 388 404 354.5 c 128,-1,18
 412 321 412 321 415 283 c 128,-1,19
 418 245 418 245 418 205 c 128,-1,20
 418 165 418 165 415.5 128 c 128,-1,21
 413 91 413 91 410.5 63 c 128,-1,22
 408 35 408 35 406 17 c 128,-1,23
 404 -1 404 -1 404 0 c 1,24,25
 404 0 404 0 386 -2 c 128,-1,26
 368 -4 368 -4 346.5 -4.5 c 128,-1,27
 325 -5 325 -5 308 0 c 0,28,29
 298 4 298 4 296 73.5 c 128,-1,30
 294 143 294 143 296.5 207.5 c 128,-1,31
 299 272 299 272 295 299 c 0,32,33
 290 318 290 318 260.5 328.5 c 128,-1,34
 231 339 231 339 196.5 329.5 c 128,-1,35
 162 320 162 320 146 288 c 0,36,37
 129 253 129 253 129 182 c 128,-1,38
 129 111 129 111 138 58 c 2,39,-1
 146 4 l 1,40,41
 57 -1 57 -1 26 16 c 0,42,43
 12 24 12 24 17 243 c 128,-1,44
 22 462 22 462 35 466 c 0,0,1
EndSplineSet
Validated: 33
EndChar

StartChar: v
Encoding: 118 118 13
Width: 428
GlyphClass: 1
Flags: W
LayerCount: 2
Fore
SplineSet
-19 464 m 1,0,1
 -17 455 -17 455 -13.5 439.5 c 128,-1,2
 -10 424 -10 424 2 379 c 128,-1,3
 14 334 14 334 27 292.5 c 128,-1,4
 40 251 40 251 60 200 c 128,-1,5
 80 149 80 149 100.5 111.5 c 128,-1,6
 121 74 121 74 146.5 46.5 c 128,-1,7
 172 19 172 19 197 15 c 0,8,9
 239 9 239 9 289 70.5 c 128,-1,10
 339 132 339 132 375.5 213.5 c 128,-1,11
 412 295 412 295 436.5 361.5 c 128,-1,12
 461 428 461 428 461 438 c 0,13,14
 461 451 461 451 400 461 c 128,-1,15
 339 471 339 471 328 460 c 0,16,17
 324 456 324 456 308.5 383.5 c 128,-1,18
 293 311 293 311 267.5 246 c 128,-1,19
 242 181 242 181 212 184 c 0,20,21
 178 187 178 187 161 256 c 128,-1,22
 144 325 144 325 138.5 397.5 c 128,-1,23
 133 470 133 470 127 475 c 0,24,25
 122 479 122 479 109.5 480 c 128,-1,26
 97 481 97 481 79 479 c 128,-1,27
 61 477 61 477 45.5 474.5 c 128,-1,28
 30 472 30 472 9.5 468.5 c 128,-1,29
 -11 465 -11 465 -19 464 c 1,0,1
EndSplineSet
Validated: 41
EndChar

StartChar: Scaron
Encoding: 352 352 14
Width: 551
GlyphClass: 1
Flags: W
LayerCount: 2
Fore
SplineSet
139 781 m 0,0,1
 124 748 124 748 152.5 731.5 c 128,-1,2
 181 715 181 715 216 711 c 0,3,4
 238 709 238 709 275.5 738.5 c 128,-1,5
 313 768 313 768 316 793 c 0,6,7
 318 809 318 809 297 813 c 0,8,9
 263 819 263 819 235 786 c 0,10,11
 230 781 230 781 226 774 c 0,12,13
 219 763 219 763 213 770.5 c 128,-1,14
 207 778 207 778 199 789.5 c 128,-1,15
 191 801 191 801 183 811 c 128,-1,16
 175 821 175 821 163.5 815 c 128,-1,17
 152 809 152 809 139 781 c 0,0,1
281 528 m 0,18,19
 464 490 464 490 458 559 c 0,20,21
 458 565 458 565 447 595 c 0,22,23
 446 599 446 599 446 600 c 0,24,25
 452 623 452 623 396 650 c 0,26,27
 310 693 310 693 213 686 c 0,28,29
 70 676 70 676 27 552 c 0,30,31
 27 551 27 551 26 549 c 0,32,33
 13 509 13 509 12.5 462 c 128,-1,34
 12 415 12 415 25.5 371 c 128,-1,35
 39 327 39 327 78 300 c 128,-1,36
 117 273 117 273 176 279 c 0,37,38
 278 289 278 289 337 243 c 0,39,40
 381 208 381 208 365 172 c 0,41,42
 342 121 342 121 222 117 c 0,43,44
 152 115 152 115 56 132 c 0,45,46
 40 135 40 135 35 112 c 0,47,48
 28 74 28 74 54 37 c 0,49,50
 60 28 60 28 68 21 c 0,51,52
 92 0 92 0 168 -3 c 128,-1,53
 244 -6 244 -6 327 9 c 128,-1,54
 410 24 410 24 477 70 c 128,-1,55
 544 116 544 116 548 183 c 0,56,57
 551 234 551 234 515.5 274.5 c 128,-1,58
 480 315 480 315 427 336.5 c 128,-1,59
 374 358 374 358 320.5 371.5 c 128,-1,60
 267 385 267 385 229 389 c 2,61,-1
 191 393 l 2,62,63
 190 395 190 395 188 399 c 128,-1,64
 186 403 186 403 180.5 415 c 128,-1,65
 175 427 175 427 172 437 c 128,-1,66
 169 447 169 447 165.5 462.5 c 128,-1,67
 162 478 162 478 164.5 488 c 128,-1,68
 167 498 167 498 172.5 510.5 c 128,-1,69
 178 523 178 523 192.5 527 c 128,-1,70
 207 531 207 531 227.5 534 c 128,-1,71
 248 537 248 537 281 528 c 0,18,19
EndSplineSet
Validated: 41
EndChar

StartChar: Zcaron
Encoding: 381 381 15
Width: 572
GlyphClass: 1
Flags: W
LayerCount: 2
Fore
SplineSet
158 764 m 0,0,1
 182 752 182 752 205 726.5 c 128,-1,2
 228 701 228 701 240 702 c 0,3,4
 245 702 245 702 264 716 c 128,-1,5
 283 730 283 730 300 744 c 2,6,-1
 316 758 l 2,7,8
 319 759 319 759 324.5 761 c 128,-1,9
 330 763 330 763 343.5 765.5 c 128,-1,10
 357 768 357 768 366.5 766.5 c 128,-1,11
 376 765 376 765 383.5 756.5 c 128,-1,12
 391 748 391 748 390 732 c 0,13,14
 388 706 388 706 349 680 c 128,-1,15
 310 654 310 654 272 641 c 2,16,-1
 234 628 l 1,17,18
 101 710 101 710 96 726 c 0,19,20
 88 751 88 751 105.5 765.5 c 128,-1,21
 123 780 123 780 158 764 c 0,0,1
1 621 m 1,22,23
 -22 501 -22 501 1 486 c 0,24,25
 8 481 8 481 166.5 490 c 128,-1,26
 325 499 325 499 331 476 c 1,27,28
 344 451 344 451 263.5 370.5 c 128,-1,29
 183 290 183 290 93 212.5 c 128,-1,30
 3 135 3 135 0 123 c 0,31,32
 -6 98 -6 98 -8 52.5 c 128,-1,33
 -10 7 -10 7 0 0 c 1,34,35
 24 -3 24 -3 138 -8.5 c 128,-1,36
 252 -14 252 -14 373.5 -13.5 c 128,-1,37
 495 -13 495 -13 500 0 c 2,38,-1
 506 13 l 2,39,40
 511 26 511 26 512 30 c 128,-1,41
 513 34 513 34 517 46 c 128,-1,42
 521 58 521 58 521.5 64.5 c 128,-1,43
 522 71 522 71 522.5 81 c 128,-1,44
 523 91 523 91 520 99 c 128,-1,45
 517 107 517 107 512 114 c 0,46,47
 505 123 505 123 448.5 119 c 128,-1,48
 392 115 392 115 328 106 c 128,-1,49
 264 97 264 97 208 95.5 c 128,-1,50
 152 94 152 94 146 108 c 0,51,52
 137 130 137 130 193.5 189 c 128,-1,53
 250 248 250 248 325 308.5 c 128,-1,54
 400 369 400 369 466 431 c 128,-1,55
 532 493 532 493 537 519 c 0,56,57
 540 533 540 533 541.5 541.5 c 128,-1,58
 543 550 543 550 542.5 558.5 c 128,-1,59
 542 567 542 567 542.5 571 c 128,-1,60
 543 575 543 575 539 580 c 128,-1,61
 535 585 535 585 534 587 c 128,-1,62
 533 589 533 589 524 592.5 c 128,-1,63
 515 596 515 596 511.5 596.5 c 128,-1,64
 508 597 508 597 494 600.5 c 128,-1,65
 480 604 480 604 474 606 c 0,66,67
 455 611 455 611 336.5 615 c 128,-1,68
 218 619 218 619 110 620 c 2,69,-1
 1 621 l 1,22,23
EndSplineSet
Validated: 41
EndChar

StartChar: scaron
Encoding: 353 353 16
Width: 498
GlyphClass: 1
Flags: W
LayerCount: 2
Fore
SplineSet
216 637 m 0,0,1
 221 611 221 611 237 593 c 128,-1,2
 253 575 253 575 267 570 c 2,3,-1
 281 564 l 1,4,5
 303 560 303 560 353 579 c 128,-1,6
 403 598 403 598 401 612 c 0,7,8
 398 630 398 630 389 634.5 c 128,-1,9
 380 639 380 639 368.5 634 c 128,-1,10
 357 629 357 629 336.5 622.5 c 128,-1,11
 316 616 316 616 298 616 c 0,12,13
 283 616 283 616 242 645 c 0,14,15
 216 664 216 664 215 650 c 0,16,17
 214 645 214 645 216 637 c 0,0,1
395 408 m 0,18,19
 431 400 431 400 446 408.5 c 128,-1,20
 461 417 461 417 456 437.5 c 128,-1,21
 451 458 451 458 445.5 470.5 c 128,-1,22
 440 483 440 483 432 496 c 0,23,24
 419 517 419 517 362 530.5 c 128,-1,25
 305 544 305 544 239.5 544 c 128,-1,26
 174 544 174 544 117 517.5 c 128,-1,27
 60 491 60 491 50 441 c 0,28,29
 41 411 41 411 43.5 385.5 c 128,-1,30
 46 360 46 360 49 341.5 c 128,-1,31
 52 323 52 323 64.5 307 c 128,-1,32
 77 291 77 291 88 280 c 128,-1,33
 99 269 99 269 116.5 259.5 c 128,-1,34
 134 250 134 250 148.5 244.5 c 128,-1,35
 163 239 163 239 182 233 c 0,36,37
 254 210 254 210 259 170 c 0,38,39
 263 136 263 136 220 118 c 0,40,41
 171 97 171 97 101 118 c 0,42,43
 48 133 48 133 25 123 c 128,-1,44
 2 113 2 113 2 88.5 c 128,-1,45
 2 64 2 64 10.5 42 c 128,-1,46
 19 20 19 20 27 11 c 0,47,48
 42 -5 42 -5 105.5 -6.5 c 128,-1,49
 169 -8 169 -8 239.5 3 c 128,-1,50
 310 14 310 14 367 42.5 c 128,-1,51
 424 71 424 71 426 110 c 0,52,53
 429 163 429 163 415 202 c 128,-1,54
 401 241 401 241 378.5 261.5 c 128,-1,55
 356 282 356 282 327 296.5 c 128,-1,56
 298 311 298 311 272.5 317 c 128,-1,57
 247 323 247 323 226.5 330 c 128,-1,58
 206 337 206 337 200 345 c 0,59,60
 157 406 157 406 196 423 c 0,61,62
 242 444 242 444 395 408 c 0,18,19
EndSplineSet
Validated: 41
EndChar

StartChar: zcaron
Encoding: 382 382 17
Width: 550
GlyphClass: 1
Flags: W
LayerCount: 2
Fore
SplineSet
180 586 m 0,0,1
 174 573 174 573 210 539 c 128,-1,2
 246 505 246 505 274 501 c 0,3,4
 292 498 292 498 318 517.5 c 128,-1,5
 344 537 344 537 361 559 c 128,-1,6
 378 581 378 581 374 588 c 0,7,8
 368 597 368 597 322 577.5 c 128,-1,9
 276 558 276 558 271 562 c 0,10,11
 258 572 258 572 221.5 584.5 c 128,-1,12
 185 597 185 597 180 586 c 0,0,1
29 468 m 1,13,14
 28 460 28 460 26 447 c 128,-1,15
 24 434 24 434 21 406.5 c 128,-1,16
 18 379 18 379 19 360.5 c 128,-1,17
 20 342 20 342 26 342 c 0,18,19
 27 342 27 342 62 342.5 c 128,-1,20
 97 343 97 343 136.5 343.5 c 128,-1,21
 176 344 176 344 219 343.5 c 128,-1,22
 262 343 262 343 291.5 341 c 128,-1,23
 321 339 321 339 324 335 c 0,24,25
 328 329 328 329 304 307.5 c 128,-1,26
 280 286 280 286 238 256 c 128,-1,27
 196 226 196 226 154.5 197 c 128,-1,28
 113 168 113 168 72 140 c 128,-1,29
 31 112 31 112 19 103 c 0,30,31
 6 93 6 93 2 48 c 128,-1,32
 -2 3 -2 3 8 0 c 0,33,34
 41 -12 41 -12 239.5 -17 c 128,-1,35
 438 -22 438 -22 478 0 c 1,36,37
 495 14 495 14 499 41.5 c 128,-1,38
 503 69 503 69 498 90 c 2,39,-1
 493 110 l 1,40,41
 303 94 303 94 296 114 c 0,42,43
 288 137 288 137 345 194.5 c 128,-1,44
 402 252 402 252 463 299.5 c 128,-1,45
 524 347 524 347 524 345 c 1,46,47
 540 453 540 453 522 466 c 0,48,49
 514 472 514 472 481 475 c 128,-1,50
 448 478 448 478 388.5 477.5 c 128,-1,51
 329 477 329 477 280 475.5 c 128,-1,52
 231 474 231 474 148.5 471.5 c 128,-1,53
 66 469 66 469 29 468 c 1,13,14
EndSplineSet
Validated: 41
EndChar

StartChar: Cacute
Encoding: 262 262 18
Width: 574
GlyphClass: 1
Flags: W
LayerCount: 2
Fore
SplineSet
296 760 m 0,0,1
 298 763 298 763 301 768.5 c 128,-1,2
 304 774 304 774 314.5 787.5 c 128,-1,3
 325 801 325 801 336 811.5 c 128,-1,4
 347 822 347 822 362 830.5 c 128,-1,5
 377 839 377 839 391 838 c 0,6,7
 414 837 414 837 422 826 c 128,-1,8
 430 815 430 815 427.5 804 c 128,-1,9
 425 793 425 793 419 786 c 0,10,11
 408 773 408 773 364 749.5 c 128,-1,12
 320 726 320 726 310 730 c 0,13,14
 290 739 290 739 296 760 c 0,0,1
421 156 m 0,15,16
 469 160 469 160 493 139 c 128,-1,17
 517 118 517 118 515 88 c 128,-1,18
 513 58 513 58 491 32 c 0,19,20
 481 20 481 20 436 11 c 128,-1,21
 391 2 391 2 329 5 c 128,-1,22
 267 8 267 8 206.5 25.5 c 128,-1,23
 146 43 146 43 98 92.5 c 128,-1,24
 50 142 50 142 39 216 c 0,25,26
 29 296 29 296 31 372.5 c 128,-1,27
 33 449 33 449 57.5 515.5 c 128,-1,28
 82 582 82 582 120 630 c 128,-1,29
 158 678 158 678 220 701 c 128,-1,30
 282 724 282 724 359 714 c 0,31,32
 459 701 459 701 481 635 c 0,33,34
 495 593 495 593 473 566 c 0,35,36
 463 552 463 552 449 554 c 0,37,38
 309 575 309 575 245 524.5 c 128,-1,39
 181 474 181 474 195 322 c 0,40,41
 199 277 199 277 218 244 c 128,-1,42
 237 211 237 211 261.5 193.5 c 128,-1,43
 286 176 286 176 317.5 166.5 c 128,-1,44
 349 157 349 157 373.5 155.5 c 128,-1,45
 398 154 398 154 421 156 c 0,15,16
EndSplineSet
Validated: 33
EndChar

StartChar: Ccaron
Encoding: 268 268 19
Width: 499
GlyphClass: 1
Flags: W
LayerCount: 2
Fore
SplineSet
329 726 m 1,0,1
 293 716 293 716 272 728 c 0,2,3
 253 739 253 739 221.5 771 c 128,-1,4
 190 803 190 803 189 823 c 0,5,6
 188 844 188 844 217.5 852.5 c 128,-1,7
 247 861 247 861 255 850 c 0,8,9
 258 847 258 847 262.5 839.5 c 128,-1,10
 267 832 267 832 272 823.5 c 128,-1,11
 277 815 277 815 281.5 807.5 c 128,-1,12
 286 800 286 800 290 795 c 128,-1,13
 294 790 294 790 295 790 c 0,14,15
 299 791 299 791 303.5 803 c 128,-1,16
 308 815 308 815 312.5 829.5 c 128,-1,17
 317 844 317 844 320 848 c 0,18,19
 338 871 338 871 370 846 c 0,20,21
 384 835 384 835 367 785.5 c 128,-1,22
 350 736 350 736 329 726 c 1,0,1
494 171 m 2,23,24
 497 171 497 171 506.5 143.5 c 128,-1,25
 516 116 516 116 510.5 79.5 c 128,-1,26
 505 43 505 43 470 24 c 0,27,28
 431 3 431 3 374.5 -2.5 c 128,-1,29
 318 -8 318 -8 255.5 6.5 c 128,-1,30
 193 21 193 21 139 54.5 c 128,-1,31
 85 88 85 88 49 153.5 c 128,-1,32
 13 219 13 219 11 306 c 0,33,34
 6 537 6 537 147 649 c 0,35,36
 236 720 236 720 341 718 c 0,37,38
 420 717 420 717 446 677 c 0,39,40
 448 675 448 675 449 672 c 0,41,42
 460 649 460 649 464 629 c 128,-1,43
 468 609 468 609 466 596.5 c 128,-1,44
 464 584 464 584 459.5 575.5 c 128,-1,45
 455 567 455 567 449.5 563.5 c 128,-1,46
 444 560 444 560 440 561 c 0,47,48
 431 563 431 563 408 564 c 128,-1,49
 385 565 385 565 343.5 558 c 128,-1,50
 302 551 302 551 265.5 532.5 c 128,-1,51
 229 514 229 514 200 467.5 c 128,-1,52
 171 421 171 421 167 354 c 0,53,54
 164 301 164 301 180.5 262 c 128,-1,55
 197 223 197 223 225.5 203.5 c 128,-1,56
 254 184 254 184 289.5 172.5 c 128,-1,57
 325 161 325 161 361 160.5 c 128,-1,58
 397 160 397 160 426.5 162 c 128,-1,59
 456 164 456 164 475 168 c 2,60,-1
 494 171 l 2,23,24
EndSplineSet
Validated: 33
EndChar

StartChar: Dcroat
Encoding: 272 272 20
Width: 530
GlyphClass: 1
Flags: W
LayerCount: 2
Fore
SplineSet
191 335 m 1,0,1
 179 136 179 136 191 134 c 0,2,3
 212 130 212 130 253 142.5 c 128,-1,4
 294 155 294 155 340.5 188 c 128,-1,5
 387 221 387 221 407.5 280 c 128,-1,6
 428 339 428 339 407 428 c 0,7,8
 389 495 389 495 359 541 c 128,-1,9
 329 587 329 587 300 604.5 c 128,-1,10
 271 622 271 622 244.5 629.5 c 128,-1,11
 218 637 218 637 202 635 c 2,12,-1
 185 633 l 1,13,-1
 188 434 l 1,14,-1
 263 434 l 1,15,-1
 266 338 l 1,16,-1
 191 335 l 1,0,1
80 0 m 1,17,-1
 83 330 l 1,18,19
 0 321 0 321 0 333 c 0,20,21
 0 335 0 335 -2 355 c 128,-1,22
 -4 375 -4 375 -4 392 c 128,-1,23
 -4 409 -4 409 0 413 c 0,24,25
 9 423 9 423 86 423 c 1,26,27
 85 444 85 444 83.5 478 c 128,-1,28
 82 512 82 512 79.5 584.5 c 128,-1,29
 77 657 77 657 79 705 c 128,-1,30
 81 753 81 753 89 752 c 0,31,32
 92 752 92 752 117 753.5 c 128,-1,33
 142 755 142 755 171 756 c 128,-1,34
 200 757 200 757 240.5 751.5 c 128,-1,35
 281 746 281 746 318 734.5 c 128,-1,36
 355 723 355 723 393 696 c 128,-1,37
 431 669 431 669 458.5 630.5 c 128,-1,38
 486 592 486 592 503.5 529 c 128,-1,39
 521 466 521 466 521 386 c 0,40,41
 521 295 521 295 496.5 225 c 128,-1,42
 472 155 472 155 433.5 115 c 128,-1,43
 395 75 395 75 348 48 c 128,-1,44
 301 21 301 21 253.5 12 c 128,-1,45
 206 3 206 3 167.5 -0.5 c 128,-1,46
 129 -4 129 -4 104 -2 c 2,47,-1
 80 0 l 1,17,-1
EndSplineSet
Validated: 33
EndChar

StartChar: cacute
Encoding: 263 263 21
Width: 454
GlyphClass: 1
Flags: W
LayerCount: 2
Fore
SplineSet
257 507 m 0,0,1
 363 549 363 549 377 579 c 0,2,3
 391 608 391 608 358 609 c 0,4,5
 316 610 316 610 264 571 c 0,6,7
 256 565 256 565 249 558 c 0,8,9
 226 537 226 537 226 523.5 c 128,-1,10
 226 510 226 510 237.5 507 c 128,-1,11
 249 504 249 504 257 507 c 0,0,1
421 8 m 128,-1,13
 415 4 415 4 389 0 c 128,-1,14
 363 -4 363 -4 323 -6.5 c 128,-1,15
 283 -9 283 -9 239 -3.5 c 128,-1,16
 195 2 195 2 153 17.5 c 128,-1,17
 111 33 111 33 80.5 64.5 c 128,-1,18
 50 96 50 96 37 146 c 128,-1,19
 24 196 24 196 38 270 c 0,20,21
 53 346 53 346 88.5 393.5 c 128,-1,22
 124 441 124 441 167 455 c 128,-1,23
 210 469 210 469 255.5 466 c 128,-1,24
 301 463 301 463 338 444 c 128,-1,25
 375 425 375 425 396 399 c 1,26,27
 405 381 405 381 404 366.5 c 128,-1,28
 403 352 403 352 397.5 332 c 128,-1,29
 392 312 392 312 392 311 c 0,30,31
 392 309 392 309 376 317.5 c 128,-1,32
 360 326 360 326 333.5 335.5 c 128,-1,33
 307 345 307 345 277 348 c 128,-1,34
 247 351 247 351 215 334.5 c 128,-1,35
 183 318 183 318 161 280 c 0,36,37
 140 243 140 243 138.5 213 c 128,-1,38
 137 183 137 183 152.5 165 c 128,-1,39
 168 147 168 147 192 133.5 c 128,-1,40
 216 120 216 120 245.5 116 c 128,-1,41
 275 112 275 112 301.5 109 c 128,-1,42
 328 106 328 106 349 110 c 0,43,44
 377 112 377 112 396.5 88 c 128,-1,45
 416 64 416 64 421.5 38 c 128,-1,12
 427 12 427 12 421 8 c 128,-1,13
EndSplineSet
Validated: 41
EndChar

StartChar: ccaron
Encoding: 269 269 22
Width: 488
GlyphClass: 1
Flags: W
LayerCount: 2
Fore
SplineSet
173 594 m 0,0,1
 181 555 181 555 205.5 535 c 128,-1,2
 230 515 230 515 263 513 c 0,3,4
 292 512 292 512 329.5 541 c 128,-1,5
 367 570 367 570 362 588 c 0,6,7
 356 607 356 607 347 611 c 128,-1,8
 338 615 338 615 320 612 c 0,9,10
 310 611 310 611 298 600.5 c 128,-1,11
 286 590 286 590 279 580 c 2,12,-1
 272 570 l 1,13,14
 231 622 231 622 218 627 c 0,15,16
 206 632 206 632 196.5 633.5 c 128,-1,17
 187 635 187 635 177.5 626.5 c 128,-1,18
 168 618 168 618 173 594 c 0,0,1
379 454 m 0,19,20
 376 454 376 454 343.5 457.5 c 128,-1,21
 311 461 311 461 279.5 463 c 128,-1,22
 248 465 248 465 206 459 c 128,-1,23
 164 453 164 453 133.5 438.5 c 128,-1,24
 103 424 103 424 81 389 c 128,-1,25
 59 354 59 354 59 303 c 0,26,27
 59 129 59 129 127.5 45 c 128,-1,28
 196 -39 196 -39 353 -11 c 0,29,30
 448 6 448 6 454 54 c 0,31,32
 457 88 457 88 418 112 c 0,33,34
 378 136 378 136 338 122 c 0,35,36
 311 113 311 113 245 155.5 c 128,-1,37
 179 198 179 198 182 255 c 128,-1,38
 185 312 185 312 215 326.5 c 128,-1,39
 245 341 245 341 354 352 c 0,40,41
 366 353 366 353 372 354 c 0,42,43
 388 356 388 356 397.5 366.5 c 128,-1,44
 407 377 407 377 409 391.5 c 128,-1,45
 411 406 411 406 408.5 420 c 128,-1,46
 406 434 406 434 397.5 444 c 128,-1,47
 389 454 389 454 379 454 c 0,19,20
EndSplineSet
Validated: 41
EndChar

StartChar: dcroat
Encoding: 273 273 23
Width: 542
GlyphClass: 1
Flags: W
LayerCount: 2
Fore
SplineSet
249 148 m 0,0,1
 183 156 183 156 167 167 c 0,2,3
 135 188 135 188 156 268 c 0,4,5
 165 303 165 303 186.5 318 c 128,-1,6
 208 333 208 333 232 329 c 128,-1,7
 256 325 256 325 278.5 312.5 c 128,-1,8
 301 300 301 300 315 283 c 0,9,10
 327 269 327 269 328.5 245 c 128,-1,11
 330 221 330 221 323 198 c 128,-1,12
 316 175 316 175 296.5 160 c 128,-1,13
 277 145 277 145 249 148 c 0,0,1
332 455 m 1,14,15
 326 455 326 455 314.5 455 c 128,-1,16
 303 455 303 455 270.5 451.5 c 128,-1,17
 238 448 238 448 209 441 c 128,-1,18
 180 434 180 434 144 419 c 128,-1,19
 108 404 108 404 82 383.5 c 128,-1,20
 56 363 56 363 38 329 c 128,-1,21
 20 295 20 295 20 252 c 0,22,23
 20 192 20 192 33.5 145.5 c 128,-1,24
 47 99 47 99 67.5 72 c 128,-1,25
 88 45 88 45 118 27 c 128,-1,26
 148 9 148 9 174.5 2.5 c 128,-1,27
 201 -4 201 -4 232.5 -5.5 c 128,-1,28
 264 -7 264 -7 281.5 -5 c 128,-1,29
 299 -3 299 -3 317 0 c 0,30,31
 322 1 322 1 326 13.5 c 128,-1,32
 330 26 330 26 331 36 c 128,-1,33
 332 46 332 46 332 48 c 1,34,35
 342 3 342 3 348 0 c 0,36,37
 351 -1 351 -1 375 -0.5 c 128,-1,38
 399 0 399 0 417.5 0.5 c 128,-1,39
 436 1 436 1 440 0 c 1,40,-1
 440 0 l 1,41,-1
 440 0 l 1,42,-1
 440 0 l 1,43,-1
 440 0 l 1,44,-1
 440 0 l 1,45,-1
 440 1 l 1,46,-1
 440 1 l 1,47,-1
 440 1 l 1,48,-1
 440 1 l 1,49,-1
 440 2 l 1,50,-1
 440 2 l 1,51,-1
 440 2 l 1,52,-1
 440 3 l 1,53,-1
 440 3 l 1,54,-1
 440 3 l 1,55,-1
 440 4 l 1,56,-1
 440 4 l 1,57,-1
 440 5 l 1,58,-1
 440 5 l 1,59,-1
 440 6 l 1,60,-1
 440 6 l 1,61,-1
 440 7 l 1,62,-1
 440 8 l 1,63,-1
 440 8 l 1,64,-1
 440 9 l 1,65,-1
 440 9 l 1,66,-1
 440 10 l 1,67,-1
 440 11 l 1,68,-1
 440 12 l 1,69,-1
 440 12 l 1,70,-1
 440 13 l 1,71,-1
 440 14 l 1,72,-1
 440 15 l 1,73,-1
 440 16 l 1,74,-1
 440 17 l 1,75,-1
 440 18 l 1,76,-1
 440 19 l 1,77,-1
 440 20 l 1,78,-1
 440 21 l 1,79,-1
 440 22 l 1,80,-1
 440 23 l 1,81,-1
 440 24 l 1,82,-1
 440 25 l 1,83,-1
 440 26 l 1,84,-1
 440 27 l 1,85,-1
 440 28 l 1,86,-1
 440 29 l 1,87,-1
 440 30 l 1,88,-1
 440 31 l 1,89,-1
 440 32 l 1,90,-1
 440 33 l 1,91,-1
 440 34 l 1,92,-1
 440 35 l 1,93,-1
 440 36 l 1,94,-1
 440 37 l 1,95,-1
 440 38 l 1,96,-1
 440 39 l 1,97,-1
 440 40 l 1,98,-1
 440 41 l 1,99,-1
 440 42 l 1,100,-1
 440 43 l 1,101,-1
 440 44 l 1,102,-1
 440 45 l 1,103,-1
 440 46 l 1,104,-1
 440 47 l 1,105,-1
 440 48 l 1,106,-1
 440 49 l 1,107,-1
 440 50 l 1,108,-1
 440 51 l 1,109,-1
 440 52 l 1,110,-1
 440 53 l 1,111,-1
 440 54 l 1,112,-1
 440 55 l 1,113,-1
 440 56 l 1,114,-1
 440 57 l 1,115,-1
 440 58 l 1,116,-1
 440 59 l 1,117,-1
 440 60 l 1,118,-1
 440 61 l 1,119,-1
 440 62 l 1,120,-1
 440 63 l 1,121,-1
 440 64 l 1,122,-1
 440 65 l 1,123,-1
 440 66 l 1,124,-1
 440 67 l 1,125,-1
 440 68 l 1,126,-1
 440 69 l 1,127,-1
 440 70 l 1,128,-1
 440 71 l 1,129,-1
 440 72 l 1,130,-1
 440 73 l 1,131,-1
 440 74 l 1,132,-1
 440 75 l 1,133,-1
 440 76 l 1,134,-1
 440 77 l 1,135,-1
 440 78 l 1,136,-1
 440 79 l 1,137,-1
 440 80 l 1,138,-1
 440 81 l 1,139,-1
 440 82 l 1,140,-1
 440 83 l 1,141,-1
 440 84 l 1,142,-1
 440 85 l 1,143,-1
 440 86 l 1,144,-1
 440 87 l 1,145,-1
 440 88 l 1,146,-1
 440 89 l 1,147,-1
 440 90 l 1,148,-1
 440 91 l 1,149,-1
 440 92 l 1,150,-1
 440 93 l 1,151,-1
 440 94 l 1,152,-1
 440 95 l 1,153,-1
 440 96 l 1,154,-1
 440 97 l 1,155,-1
 440 98 l 1,156,-1
 440 99 l 1,157,-1
 440 100 l 1,158,-1
 440 101 l 1,159,-1
 440 102 l 1,160,-1
 440 103 l 1,161,-1
 440 104 l 1,162,-1
 440 105 l 1,163,-1
 440 106 l 1,164,-1
 440 107 l 1,165,-1
 440 108 l 1,166,-1
 440 109 l 1,167,-1
 440 111 l 1,168,-1
 440 112 l 1,169,-1
 440 113 l 1,170,-1
 440 114 l 1,171,-1
 440 115 l 1,172,-1
 440 116 l 1,173,-1
 440 117 l 1,174,-1
 440 118 l 1,175,-1
 440 119 l 1,176,-1
 440 120 l 1,177,-1
 440 122 l 1,178,-1
 440 123 l 1,179,-1
 440 124 l 1,180,-1
 440 125 l 1,181,-1
 440 126 l 1,182,-1
 440 127 l 1,183,-1
 440 128 l 1,184,-1
 440 130 l 1,185,-1
 440 131 l 1,186,-1
 440 132 l 1,187,-1
 440 133 l 1,188,-1
 440 134 l 1,189,-1
 440 135 l 1,190,-1
 440 137 l 1,191,-1
 440 138 l 1,192,-1
 440 139 l 1,193,-1
 440 140 l 1,194,-1
 440 141 l 1,195,-1
 440 142 l 1,196,-1
 440 144 l 1,197,-1
 440 145 l 1,198,-1
 440 146 l 1,199,-1
 440 147 l 1,200,-1
 440 148 l 1,201,-1
 440 150 l 1,202,-1
 440 151 l 1,203,-1
 440 152 l 1,204,-1
 440 153 l 1,205,-1
 440 155 l 1,206,-1
 440 156 l 1,207,-1
 440 157 l 1,208,-1
 440 158 l 1,209,-1
 440 160 l 1,210,-1
 440 161 l 1,211,-1
 440 162 l 1,212,-1
 440 163 l 1,213,-1
 440 165 l 1,214,-1
 440 166 l 1,215,-1
 440 167 l 1,216,-1
 440 168 l 1,217,-1
 440 170 l 1,218,-1
 440 171 l 1,219,-1
 440 172 l 1,220,-1
 440 173 l 1,221,-1
 440 175 l 1,222,-1
 440 176 l 1,223,-1
 440 177 l 1,224,-1
 440 179 l 1,225,-1
 440 180 l 1,226,-1
 440 181 l 1,227,-1
 440 182 l 1,228,-1
 440 184 l 1,229,-1
 440 185 l 1,230,-1
 440 186 l 1,231,-1
 440 188 l 1,232,-1
 440 189 l 1,233,-1
 440 190 l 1,234,-1
 440 192 l 1,235,-1
 440 193 l 1,236,-1
 440 194 l 1,237,-1
 440 196 l 1,238,-1
 440 197 l 1,239,-1
 440 198 l 1,240,-1
 440 200 l 1,241,-1
 440 201 l 1,242,-1
 440 202 l 1,243,-1
 440 204 l 1,244,-1
 440 205 l 1,245,-1
 440 206 l 1,246,-1
 440 208 l 1,247,-1
 440 209 l 1,248,-1
 440 210 l 1,249,-1
 440 212 l 1,250,-1
 440 213 l 1,251,-1
 440 214 l 1,252,-1
 440 216 l 1,253,-1
 440 217 l 1,254,-1
 440 219 l 1,255,-1
 440 220 l 1,256,-1
 440 221 l 1,257,-1
 440 223 l 1,258,-1
 440 224 l 1,259,-1
 440 226 l 1,260,-1
 440 227 l 1,261,-1
 440 228 l 1,262,-1
 440 230 l 1,263,-1
 440 231 l 1,264,-1
 440 233 l 1,265,-1
 440 234 l 1,266,-1
 440 235 l 1,267,-1
 440 237 l 1,268,-1
 440 238 l 1,269,-1
 440 240 l 1,270,-1
 440 241 l 1,271,-1
 440 242 l 1,272,-1
 440 244 l 1,273,-1
 440 245 l 1,274,-1
 440 247 l 1,275,-1
 440 248 l 1,276,-1
 440 250 l 1,277,-1
 440 251 l 1,278,-1
 440 253 l 1,279,-1
 440 254 l 1,280,-1
 440 255 l 1,281,-1
 440 257 l 1,282,-1
 440 258 l 1,283,-1
 440 260 l 1,284,-1
 440 261 l 1,285,-1
 440 263 l 1,286,-1
 440 264 l 1,287,-1
 440 266 l 1,288,-1
 440 267 l 1,289,-1
 440 269 l 1,290,-1
 440 270 l 1,291,-1
 440 272 l 1,292,-1
 440 273 l 1,293,-1
 440 275 l 1,294,-1
 440 276 l 1,295,-1
 440 278 l 1,296,-1
 440 279 l 1,297,-1
 440 281 l 1,298,-1
 440 282 l 1,299,-1
 440 284 l 1,300,-1
 440 285 l 1,301,-1
 440 287 l 1,302,-1
 440 288 l 1,303,-1
 440 290 l 1,304,-1
 440 291 l 1,305,-1
 440 293 l 1,306,-1
 440 294 l 1,307,-1
 440 296 l 1,308,-1
 440 297 l 1,309,-1
 440 299 l 1,310,-1
 440 300 l 1,311,-1
 440 302 l 1,312,-1
 440 303 l 1,313,-1
 440 305 l 1,314,-1
 440 306 l 1,315,-1
 440 308 l 1,316,-1
 440 310 l 1,317,-1
 440 311 l 1,318,-1
 440 313 l 1,319,-1
 440 314 l 1,320,-1
 440 316 l 1,321,-1
 440 317 l 1,322,-1
 440 319 l 1,323,-1
 440 320 l 1,324,-1
 440 322 l 1,325,-1
 440 324 l 1,326,-1
 440 325 l 1,327,-1
 440 327 l 1,328,-1
 440 328 l 1,329,-1
 440 330 l 1,330,-1
 440 332 l 1,331,-1
 440 333 l 1,332,-1
 440 335 l 1,333,-1
 440 336 l 1,334,-1
 440 338 l 1,335,-1
 440 339 l 1,336,-1
 440 341 l 1,337,-1
 440 343 l 1,338,-1
 440 344 l 1,339,-1
 440 346 l 1,340,-1
 440 347 l 1,341,-1
 440 349 l 1,342,-1
 440 351 l 1,343,-1
 440 352 l 1,344,-1
 440 354 l 1,345,-1
 440 356 l 1,346,-1
 440 357 l 1,347,-1
 440 359 l 1,348,-1
 440 360 l 1,349,-1
 440 362 l 1,350,-1
 440 364 l 1,351,-1
 440 365 l 1,352,-1
 440 367 l 1,353,-1
 440 369 l 1,354,-1
 440 370 l 1,355,-1
 440 372 l 1,356,-1
 440 374 l 1,357,-1
 440 375 l 1,358,-1
 440 377 l 1,359,-1
 440 379 l 1,360,-1
 440 380 l 1,361,-1
 440 382 l 1,362,-1
 440 384 l 1,363,-1
 440 385 l 1,364,-1
 440 387 l 1,365,-1
 440 389 l 1,366,-1
 440 390 l 1,367,-1
 440 392 l 1,368,-1
 440 394 l 1,369,-1
 440 395 l 1,370,-1
 440 397 l 1,371,-1
 440 399 l 1,372,-1
 440 400 l 1,373,-1
 440 402 l 1,374,-1
 440 404 l 1,375,-1
 440 405 l 1,376,-1
 440 407 l 1,377,-1
 440 409 l 1,378,-1
 440 411 l 1,379,-1
 440 412 l 1,380,-1
 440 414 l 1,381,-1
 440 416 l 1,382,-1
 440 417 l 1,383,-1
 440 419 l 1,384,-1
 440 421 l 1,385,-1
 440 422 l 1,386,-1
 440 424 l 1,387,-1
 440 426 l 1,388,-1
 440 428 l 1,389,-1
 440 429 l 1,390,-1
 440 431 l 1,391,-1
 440 433 l 1,392,-1
 440 435 l 1,393,-1
 440 436 l 1,394,-1
 440 438 l 1,395,-1
 440 440 l 1,396,-1
 440 442 l 1,397,-1
 440 443 l 1,398,-1
 440 445 l 1,399,-1
 440 447 l 1,400,-1
 440 449 l 1,401,-1
 440 450 l 1,402,-1
 440 452 l 1,403,-1
 440 454 l 1,404,-1
 440 456 l 1,405,-1
 440 457 l 1,406,-1
 440 459 l 1,407,-1
 440 461 l 1,408,-1
 440 463 l 1,409,-1
 440 465 l 1,410,-1
 440 466 l 1,411,-1
 440 468 l 1,412,-1
 440 470 l 1,413,-1
 440 472 l 1,414,-1
 440 473 l 1,415,-1
 440 475 l 1,416,-1
 440 477 l 1,417,-1
 440 479 l 1,418,-1
 440 481 l 1,419,-1
 440 482 l 1,420,-1
 440 484 l 1,421,-1
 440 486 l 1,422,-1
 440 488 l 1,423,-1
 440 490 l 1,424,-1
 440 492 l 1,425,-1
 440 493 l 1,426,-1
 440 495 l 1,427,-1
 440 497 l 1,428,-1
 440 499 l 1,429,-1
 440 501 l 1,430,-1
 440 503 l 1,431,-1
 440 504 l 1,432,-1
 440 506 l 1,433,-1
 440 508 l 1,434,-1
 440 510 l 1,435,-1
 440 512 l 1,436,-1
 440 514 l 1,437,-1
 440 515 l 1,438,-1
 440 517 l 1,439,-1
 440 519 l 1,440,-1
 440 521 l 1,441,-1
 440 523 l 1,442,-1
 440 525 l 1,443,-1
 440 527 l 1,444,-1
 440 528 l 1,445,-1
 440 530 l 1,446,-1
 440 532 l 1,447,-1
 440 534 l 1,448,-1
 440 536 l 1,449,-1
 440 538 l 1,450,-1
 440 540 l 1,451,-1
 440 542 l 1,452,-1
 440 543 l 1,453,-1
 440 545 l 1,454,-1
 440 547 l 1,455,-1
 440 549 l 1,456,-1
 440 559 l 1,457,-1
 507 561 l 1,458,-1
 504 624 l 1,459,-1
 442 627 l 1,460,-1
 439 753 l 1,461,-1
 347 753 l 1,462,-1
 349 641 l 1,463,-1
 270 642 l 1,464,-1
 274 572 l 1,465,-1
 334 569 l 1,466,-1
 332 455 l 1,14,15
EndSplineSet
Validated: 37
EndChar
